<?xml version="1.0" encoding="UTF-8"?>
<svg width="603px" height="385px" viewBox="0 0 603 385" xmlns="http://www.w3.org/2000/svg" xmlns:xlink="http://www.w3.org/1999/xlink" version="1.1">
 <!-- Generated by Pixelmator Pro 1.7 -->
 <path id="Form" d="M302 11 L42.192 87.5 561.808 87.5 Z" fill="#383838" fill-opacity="0.67" stroke="none"/>
 <path id="Form-1" d="M86 325 L172 325 172 103 86 103 Z" fill="#d62847" fill-opacity="0.9" stroke="none"/>
 <path id="Form-Kopie" d="M429 325 L515 325 515 103 429 103 Z" fill="#106682" fill-opacity="0.9" stroke="none"/>
 <path id="Form-Kopie-1" d="M259 325 L345 325 345 103 259 103 Z" fill="#79aa31" fill-opacity="0.9" stroke="none"/>
 <defs>
  <text id="string" transform="matrix(1.0 0.0 0.0 1.0 203.0 48.0)" x="1.396000000000015" font-size="28" fill="#ffffff" text-decoration="none" font-family="STHeitiSC-Medium, Heiti SC" y="24.0">Nachhaltigkeit</text>
 </defs>
 <use id="Nachhaltigkeit" xlink:href="#string"/>
 <path id="Form-2" d="M43 337 C40.239 337 38 339.239 38 342 L38 369 C38 371.761 40.239 374 43 374 L561 374 C563.761 374 566 371.761 566 369 L566 342 C566 339.239 563.761 337 561 337 Z" fill="#8f8f8f" fill-opacity="1" stroke="none"/>
 <defs>
  <text id="string-1" transform="matrix(-1.8369701987210297e-16 -1.0 1.0 -1.8369701987210297e-16 108.50000000000003 288.5)" x="1.120000000000033" font-size="40" fill="#ffffff" text-decoration="none" font-family="STHeitiSC-Medium, Heiti SC" y="34.0">Soziales</text>
 </defs>
 <use id="Soziales" xlink:href="#string-1"/>
 <defs>
  <text id="string-2" transform="matrix(-1.8369701987210297e-16 -1.0 1.0 -1.8369701987210297e-16 281.5 302.5)" x="1.0200000000000244" font-size="40" fill="#ffffff" text-decoration="none" font-family="STHeitiSC-Medium, Heiti SC" y="34.0">Ökologie</text>
 </defs>
 <use id="Ökologie" xlink:href="#string-2"/>
 <defs>
  <text id="string-3" transform="matrix(-1.8369701987210297e-16 -1.0 1.0 -1.8369701987210297e-16 451.5 315.5)" x="1.5200000000000102" font-size="40" fill="#ffffff" text-decoration="none" font-family="STHeitiSC-Medium, Heiti SC" y="34.0">Ökonomie</text>
 </defs>
 <use id="Ökonomie" xlink:href="#string-3"/>
 <defs>
  <text id="string-4" transform="matrix(1.0 0.0 0.0 1.0 4.0 6.5)" x="1.199999999999939" font-size="10" fill="#383838" text-decoration="none" font-family="STHeitiSC-Medium, Heiti SC" y="9.0">© my-green-choice.de</text>
 </defs>
 <use id="©-my-green-choice.de" xlink:href="#string-4"/>
</svg>
